  0
SECTION
  2
HEADER
  9
$ACADVER
  1
AC1027
  9
$ACADMAINTVER
 70
105
  9
$DWGCODEPAGE
  3
ANSI_1252
  9
$LASTSAVEDBY
  1
ezdxf
  9
$REQUIREDVERSIONS
160
0
  9
$INSBASE
 10
0.0
 20
0.0
 30
0.0
  9
$EXTMIN
 10
1e+20
 20
1e+20
 30
1e+20
  9
$EXTMAX
 10
-1e+20
 20
-1e+20
 30
-1e+20
  9
$LIMMIN
 10
0.0
 20
0.0
  9
$LIMMAX
 10
420.0
 20
297.0
  9
$ORTHOMODE
 70
0
  9
$REGENMODE
 70
1
  9
$FILLMODE
 70
1
  9
$QTEXTMODE
 70
0
  9
$MIRRTEXT
 70
1
  9
$LTSCALE
 40
1.0
  9
$ATTMODE
 70
1
  9
$TEXTSIZE
 40
2.5
  9
$TRACEWID
 40
1.0
  9
$TEXTSTYLE
  7
Standard
  9
$CLAYER
  8
0
  9
$CELTYPE
  6
ByLayer
  9
$CECOLOR
 62
256
  9
$CELTSCALE
 40
1.0
  9
$DISPSILH
 70
0
  9
$DIMSCALE
 40
1.0
  9
$DIMASZ
 40
2.5
  9
$DIMEXO
 40
0.625
  9
$DIMDLI
 40
3.75
  9
$DIMRND
 40
0.0
  9
$DIMDLE
 40
0.0
  9
$DIMEXE
 40
1.25
  9
$DIMTP
 40
0.0
  9
$DIMTM
 40
0.0
  9
$DIMTXT
 40
2.5
  9
$DIMCEN
 40
2.5
  9
$DIMTSZ
 40
0.0
  9
$DIMTOL
 70
0
  9
$DIMLIM
 70
0
  9
$DIMTIH
 70
0
  9
$DIMTOH
 70
0
  9
$DIMSE1
 70
0
  9
$DIMSE2
 70
0
  9
$DIMTAD
 70
1
  9
$DIMZIN
 70
8
  9
$DIMBLK
  1

  9
$DIMASO
 70
1
  9
$DIMSHO
 70
1
  9
$DIMPOST
  1

  9
$DIMAPOST
  1

  9
$DIMALT
 70
0
  9
$DIMALTD
 70
3
  9
$DIMALTF
 40
0.03937007874
  9
$DIMLFAC
 40
1.0
  9
$DIMTOFL
 70
1
  9
$DIMTVP
 40
0.0
  9
$DIMTIX
 70
0
  9
$DIMSOXD
 70
0
  9
$DIMSAH
 70
0
  9
$DIMBLK1
  1

  9
$DIMBLK2
  1

  9
$DIMSTYLE
  2
ISO-25
  9
$DIMCLRD
 70
0
  9
$DIMCLRE
 70
0
  9
$DIMCLRT
 70
0
  9
$DIMTFAC
 40
1.0
  9
$DIMGAP
 40
0.625
  9
$DIMJUST
 70
0
  9
$DIMSD1
 70
0
  9
$DIMSD2
 70
0
  9
$DIMTOLJ
 70
0
  9
$DIMTZIN
 70
8
  9
$DIMALTZ
 70
0
  9
$DIMALTTZ
 70
0
  9
$DIMUPT
 70
0
  9
$DIMDEC
 70
2
  9
$DIMTDEC
 70
2
  9
$DIMALTU
 70
2
  9
$DIMALTTD
 70
3
  9
$DIMTXSTY
  7
Standard
  9
$DIMAUNIT
 70
0
  9
$DIMADEC
 70
0
  9
$DIMALTRND
 40
0.0
  9
$DIMAZIN
 70
0
  9
$DIMDSEP
 70
44
  9
$DIMATFIT
 70
3
  9
$DIMFRAC
 70
0
  9
$DIMLDRBLK
  1

  9
$DIMLUNIT
 70
2
  9
$DIMLWD
 70
-2
  9
$DIMLWE
 70
-2
  9
$DIMTMOVE
 70
0
  9
$DIMFXL
 40
1.0
  9
$DIMFXLON
 70
0
  9
$DIMJOGANG
 40
0.785398163397
  9
$DIMTFILL
 70
0
  9
$DIMTFILLCLR
 70
0
  9
$DIMARCSYM
 70
0
  9
$DIMLTYPE
  6

  9
$DIMLTEX1
  6

  9
$DIMLTEX2
  6

  9
$DIMTXTDIRECTION
 70
0
  9
$LUNITS
 70
2
  9
$LUPREC
 70
4
  9
$SKETCHINC
 40
1.0
  9
$FILLETRAD
 40
10.0
  9
$AUNITS
 70
0
  9
$AUPREC
 70
2
  9
$MENU
  1
.
  9
$ELEVATION
 40
0.0
  9
$PELEVATION
 40
0.0
  9
$THICKNESS
 40
0.0
  9
$LIMCHECK
 70
0
  9
$CHAMFERA
 40
0.0
  9
$CHAMFERB
 40
0.0
  9
$CHAMFERC
 40
0.0
  9
$CHAMFERD
 40
0.0
  9
$SKPOLY
 70
0
  9
$TDCREATE
 40
2461284.77974537
  9
$TDUCREATE
 40
2458532.153996898
  9
$TDUPDATE
 40
2461284.77974537
  9
$TDUUPDATE
 40
2458532.1544311
  9
$TDINDWG
 40
0.0
  9
$TDUSRTIMER
 40
0.0
  9
$USRTIMER
 70
1
  9
$ANGBASE
 50
0.0
  9
$ANGDIR
 70
0
  9
$PDMODE
 70
0
  9
$PDSIZE
 40
0.0
  9
$PLINEWID
 40
0.0
  9
$SPLFRAME
 70
0
  9
$SPLINETYPE
 70
6
  9
$SPLINESEGS
 70
8
  9
$HANDSEED
  5
142
  9
$SURFTAB1
 70
6
  9
$SURFTAB2
 70
6
  9
$SURFTYPE
 70
6
  9
$SURFU
 70
6
  9
$SURFV
 70
6
  9
$UCSBASE
  2

  9
$UCSNAME
  2

  9
$UCSORG
 10
0.0
 20
0.0
 30
0.0
  9
$UCSXDIR
 10
1.0
 20
0.0
 30
0.0
  9
$UCSYDIR
 10
0.0
 20
1.0
 30
0.0
  9
$UCSORTHOREF
  2

  9
$UCSORTHOVIEW
 70
0
  9
$UCSORGTOP
 10
0.0
 20
0.0
 30
0.0
  9
$UCSORGBOTTOM
 10
0.0
 20
0.0
 30
0.0
  9
$UCSORGLEFT
 10
0.0
 20
0.0
 30
0.0
  9
$UCSORGRIGHT
 10
0.0
 20
0.0
 30
0.0
  9
$UCSORGFRONT
 10
0.0
 20
0.0
 30
0.0
  9
$UCSORGBACK
 10
0.0
 20
0.0
 30
0.0
  9
$PUCSBASE
  2

  9
$PUCSNAME
  2

  9
$PUCSORG
 10
0.0
 20
0.0
 30
0.0
  9
$PUCSXDIR
 10
1.0
 20
0.0
 30
0.0
  9
$PUCSYDIR
 10
0.0
 20
1.0
 30
0.0
  9
$PUCSORTHOREF
  2

  9
$PUCSORTHOVIEW
 70
0
  9
$PUCSORGTOP
 10
0.0
 20
0.0
 30
0.0
  9
$PUCSORGBOTTOM
 10
0.0
 20
0.0
 30
0.0
  9
$PUCSORGLEFT
 10
0.0
 20
0.0
 30
0.0
  9
$PUCSORGRIGHT
 10
0.0
 20
0.0
 30
0.0
  9
$PUCSORGFRONT
 10
0.0
 20
0.0
 30
0.0
  9
$PUCSORGBACK
 10
0.0
 20
0.0
 30
0.0
  9
$USERI1
 70
0
  9
$USERI2
 70
0
  9
$USERI3
 70
0
  9
$USERI4
 70
0
  9
$USERI5
 70
0
  9
$USERR1
 40
0.0
  9
$USERR2
 40
0.0
  9
$USERR3
 40
0.0
  9
$USERR4
 40
0.0
  9
$USERR5
 40
0.0
  9
$WORLDVIEW
 70
1
  9
$SHADEDGE
 70
3
  9
$SHADEDIF
 70
70
  9
$TILEMODE
 70
1
  9
$MAXACTVP
 70
64
  9
$PINSBASE
 10
0.0
 20
0.0
 30
0.0
  9
$PLIMCHECK
 70
0
  9
$PEXTMIN
 10
1e+20
 20
1e+20
 30
1e+20
  9
$PEXTMAX
 10
-1e+20
 20
-1e+20
 30
-1e+20
  9
$PLIMMIN
 10
0.0
 20
0.0
  9
$PLIMMAX
 10
420.0
 20
297.0
  9
$UNITMODE
 70
0
  9
$VISRETAIN
 70
1
  9
$PLINEGEN
 70
0
  9
$PSLTSCALE
 70
1
  9
$TREEDEPTH
 70
3020
  9
$CMLSTYLE
  2
Standard
  9
$CMLJUST
 70
0
  9
$CMLSCALE
 40
20.0
  9
$PROXYGRAPHICS
 70
1
  9
$MEASUREMENT
 70
1
  9
$CELWEIGHT
370
-1
  9
$ENDCAPS
280
0
  9
$JOINSTYLE
280
0
  9
$LWDISPLAY
290
0
  9
$INSUNITS
 70
4
  9
$HYPERLINKBASE
  1

  9
$STYLESHEET
  1

  9
$XEDIT
290
1
  9
$CEPSNTYPE
380
0
  9
$PSTYLEMODE
290
1
  9
$FINGERPRINTGUID
  2
{604A6B33-7620-4AF1-A2D5-8553E8A506CC}
  9
$VERSIONGUID
  2
{344472DD-C43A-4E72-8F4C-67DD7ECA8DEE}
  9
$EXTNAMES
290
1
  9
$PSVPSCALE
 40
0.0
  9
$OLESTARTUP
290
0
  9
$SORTENTS
280
127
  9
$INDEXCTL
280
0
  9
$HIDETEXT
280
1
  9
$XCLIPFRAME
280
1
  9
$HALOGAP
280
0
  9
$OBSCOLOR
 70
257
  9
$OBSLTYPE
280
0
  9
$INTERSECTIONDISPLAY
280
0
  9
$INTERSECTIONCOLOR
 70
257
  9
$DIMASSOC
280
2
  9
$PROJECTNAME
  1

  9
$CAMERADISPLAY
290
0
  9
$LENSLENGTH
 40
50.0
  9
$CAMERAHEIGHT
 40
0.0
  9
$STEPSPERSEC
 40
24.0
  9
$STEPSIZE
 40
100.0
  9
$3DDWFPREC
 40
2.0
  9
$PSOLWIDTH
 40
0.005
  9
$PSOLHEIGHT
 40
0.08
  9
$LOFTANG1
 40
1.570796326795
  9
$LOFTANG2
 40
1.570796326795
  9
$LOFTMAG1
 40
0.0
  9
$LOFTMAG2
 40
0.0
  9
$LOFTPARAM
 70
7
  9
$LOFTNORMALS
280
1
  9
$LATITUDE
 40
37.795
  9
$LONGITUDE
 40
-122.394
  9
$NORTHDIRECTION
 40
0.0
  9
$TIMEZONE
 70
-8000
  9
$LIGHTGLYPHDISPLAY
280
1
  9
$TILEMODELIGHTSYNCH
280
1
  9
$CMATERIAL
347
20
  9
$SOLIDHIST
280
0
  9
$SHOWHIST
280
1
  9
$DWFFRAME
280
2
  9
$DGNFRAME
280
2
  9
$REALWORLDSCALE
290
1
  9
$INTERFERECOLOR
 62
256
  9
$CSHADOW
280
0
  9
$SHADOWPLANELOCATION
 40
0.0
  0
ENDSEC
  0
SECTION
  2
CLASSES
  0
CLASS
  1
ACDBDICTIONARYWDFLT
  2
AcDbDictionaryWithDefault
  3
ObjectDBX Classes
 90
0
 91
0
280
0
281
0
  0
CLASS
  1
SUN
  2
AcDbSun
  3
SCENEOE
 90
1153
 91
0
280
0
281
0
  0
CLASS
  1
VISUALSTYLE
  2
AcDbVisualStyle
  3
ObjectDBX Classes
 90
4095
 91
0
280
0
281
0
  0
CLASS
  1
MATERIAL
  2
AcDbMaterial
  3
ObjectDBX Classes
 90
1153
 91
0
280
0
281
0
  0
CLASS
  1
SCALE
  2
AcDbScale
  3
ObjectDBX Classes
 90
1153
 91
0
280
0
281
0
  0
CLASS
  1
TABLESTYLE
  2
AcDbTableStyle
  3
ObjectDBX Classes
 90
4095
 91
0
280
0
281
0
  0
CLASS
  1
MLEADERSTYLE
  2
AcDbMLeaderStyle
  3
ACDB_MLEADERSTYLE_CLASS
 90
4095
 91
0
280
0
281
0
  0
CLASS
  1
DICTIONARYVAR
  2
AcDbDictionaryVar
  3
ObjectDBX Classes
 90
0
 91
0
280
0
281
0
  0
CLASS
  1
CELLSTYLEMAP
  2
AcDbCellStyleMap
  3
ObjectDBX Classes
 90
1152
 91
0
280
0
281
0
  0
CLASS
  1
MENTALRAYRENDERSETTINGS
  2
AcDbMentalRayRenderSettings
  3
SCENEOE
 90
1024
 91
0
280
0
281
0
  0
CLASS
  1
ACDBDETAILVIEWSTYLE
  2
AcDbDetailViewStyle
  3
ObjectDBX Classes
 90
1025
 91
0
280
0
281
0
  0
CLASS
  1
ACDBSECTIONVIEWSTYLE
  2
AcDbSectionViewStyle
  3
ObjectDBX Classes
 90
1025
 91
0
280
0
281
0
  0
CLASS
  1
RASTERVARIABLES
  2
AcDbRasterVariables
  3
ISM
 90
0
 91
0
280
0
281
0
  0
CLASS
  1
ACDBPLACEHOLDER
  2
AcDbPlaceHolder
  3
ObjectDBX Classes
 90
0
 91
0
280
0
281
0
  0
CLASS
  1
LAYOUT
  2
AcDbLayout
  3
ObjectDBX Classes
 90
0
 91
0
280
0
281
0
  0
ENDSEC
  0
SECTION
  2
TABLES
  0
TABLE
  2
VPORT
  5
8
330
0
100
AcDbSymbolTable
 70
1
  0
VPORT
  5
13E
330
8
100
AcDbSymbolTableRecord
100
AcDbViewportTableRecord
  2
*Active
 70
0
 10
0.0
 20
0.0
 11
1.0
 21
1.0
 12
0.0
 22
0.0
 13
0.0
 23
0.0
 14
0.5
 24
0.5
 15
0.5
 25
0.5
 16
0.0
 26
0.0
 36
1.0
 17
0.0
 27
0.0
 37
0.0
 40
59.40918831068848
 41
1.34
 42
50.0
 43
0.0
 44
0.0
 50
0.0
 51
0.0
 71
0
 72
1000
 73
1
 74
3
 75
0
 76
0
 77
0
 78
0
281
0
 65
1
110
0.0
120
0.0
130
0.0
111
1.0
121
0.0
131
0.0
112
0.0
122
1.0
132
0.0
 79
0
146
0.0
  0
ENDTAB
  0
TABLE
  2
LTYPE
  5
2
330
0
100
AcDbSymbolTable
 70
3
  0
LTYPE
  5
24
330
2
100
AcDbSymbolTableRecord
100
AcDbLinetypeTableRecord
  2
ByBlock
 70
0
  3

 72
65
 73
0
 40
0.0
  0
LTYPE
  5
25
330
2
100
AcDbSymbolTableRecord
100
AcDbLinetypeTableRecord
  2
ByLayer
 70
0
  3

 72
65
 73
0
 40
0.0
  0
LTYPE
  5
26
330
2
100
AcDbSymbolTableRecord
100
AcDbLinetypeTableRecord
  2
Continuous
 70
0
  3

 72
65
 73
0
 40
0.0
  0
ENDTAB
  0
TABLE
  2
LAYER
  5
1
330
0
100
AcDbSymbolTable
 70
2
  0
LAYER
  5
27
330
1
100
AcDbSymbolTableRecord
100
AcDbLayerTableRecord
  2
0
 70
0
 62
7
  6
Continuous
370
-3
390
13
347
21
  0
LAYER
  5
28
330
1
100
AcDbSymbolTableRecord
100
AcDbLayerTableRecord
  2
Defpoints
 70
0
 62
7
  6
Continuous
290
0
370
-3
390
13
347
21
  0
ENDTAB
  0
TABLE
  2
STYLE
  5
5
330
0
100
AcDbSymbolTable
 70
1
  0
STYLE
  5
29
330
5
100
AcDbSymbolTableRecord
100
AcDbTextStyleTableRecord
  2
Standard
 70
0
 40
0.0
 41
1.0
 50
0.0
 71
0
 42
2.5
  3
txt
  4

  0
ENDTAB
  0
TABLE
  2
VIEW
  5
7
330
0
100
AcDbSymbolTable
 70
0
  0
ENDTAB
  0
TABLE
  2
UCS
  5
6
330
0
100
AcDbSymbolTable
 70
0
  0
ENDTAB
  0
TABLE
  2
APPID
  5
3
330
0
100
AcDbSymbolTable
 70
3
  0
APPID
  5
2A
330
3
100
AcDbSymbolTableRecord
100
AcDbRegAppTableRecord
  2
ACAD
 70
0
  0
APPID
  5
13F
330
3
100
AcDbSymbolTableRecord
100
AcDbRegAppTableRecord
  2
HATCHBACKGROUNDCOLOR
 70
0
  0
APPID
  5
140
330
3
100
AcDbSymbolTableRecord
100
AcDbRegAppTableRecord
  2
EZDXF
 70
0
  0
ENDTAB
  0
TABLE
  2
DIMSTYLE
  5
4
330
0
100
AcDbSymbolTable
 70
1
100
AcDbDimStyleTable
  0
DIMSTYLE
105
2B
330
4
100
AcDbSymbolTableRecord
100
AcDbDimStyleTableRecord
  2
Standard
 70
0
 40
1.0
 41
2.5
 42
0.625
 43
3.75
 44
1.25
 45
0.0
 46
0.0
 47
0.0
 48
0.0
 49
2.5
140
2.5
141
2.5
142
0.0
143
0.03937007874
144
1.0
145
0.0
146
1.0
147
0.625
148
0.0
 69
0
 70
0
 71
0
 72
0
 73
0
 74
0
 75
0
 76
0
 77
1
 78
8
 79
3
170
0
171
3
172
1
173
0
174
0
175
0
176
0
177
0
178
0
179
2
271
2
272
2
273
2
274
3
275
0
276
0
277
2
278
44
279
0
280
0
281
0
282
0
283
0
284
8
285
0
286
0
288
0
289
3
290
0
371
-2
372
-2
  0
ENDTAB
  0
TABLE
  2
BLOCK_RECORD
  5
9
330
0
100
AcDbSymbolTable
 70
2
  0
BLOCK_RECORD
  5
17
330
9
100
AcDbSymbolTableRecord
100
AcDbBlockTableRecord
  2
*Model_Space
340
1A
 70
0
280
1
281
0
  0
BLOCK_RECORD
  5
1B
330
9
100
AcDbSymbolTableRecord
100
AcDbBlockTableRecord
  2
*Paper_Space
340
1E
 70
0
280
1
281
0
  0
ENDTAB
  0
ENDSEC
  0
SECTION
  2
BLOCKS
  0
BLOCK
  5
18
330
17
100
AcDbEntity
  8
0
100
AcDbBlockBegin
  2
*Model_Space
 70
0
 10
0.0
 20
0.0
 30
0.0
  3
*Model_Space
  1

  0
ENDBLK
  5
19
330
17
100
AcDbEntity
  8
0
100
AcDbBlockEnd
  0
BLOCK
  5
1C
330
1B
100
AcDbEntity
  8
0
100
AcDbBlockBegin
  2
*Paper_Space
 70
0
 10
0.0
 20
0.0
 30
0.0
  3
*Paper_Space
  1

  0
ENDBLK
  5
1D
330
1B
100
AcDbEntity
  8
0
100
AcDbBlockEnd
  0
ENDSEC
  0
SECTION
  2
ENTITIES
  0
LINE
  5
2F
330
17
100
AcDbEntity
  8
0
100
AcDbLine
 10
25.23938982598877
 20
-2.5877404677908102
 30
0.0
 11
25.441285455858228
 21
-2.591383007146817
 31
0.0
  0
LINE
  5
30
330
17
100
AcDbEntity
  8
0
100
AcDbLine
 10
25.441285455858228
 20
-2.591383007146817
 30
0.0
 11
26.044270475462152
 21
-2.5344551673168807
 31
0.0
  0
LINE
  5
31
330
17
100
AcDbEntity
  8
0
100
AcDbLine
 10
26.044270475462152
 20
-2.5344551673168807
 30
0.0
 11
27.02991219124624
 21
-2.31661274802525
 31
0.0
  0
LINE
  5
32
330
17
100
AcDbEntity
  8
0
100
AcDbLine
 10
27.02991219124624
 20
-2.31661274802525
 30
0.0
 11
28.36101953862773
 21
-1.8419887501417236
 31
0.0
  0
LINE
  5
33
330
17
100
AcDbEntity
  8
0
100
AcDbLine
 10
28.36101953862773
 20
-1.8419887501417236
 30
0.0
 11
29.98257672996799
 21
-1.0222977215968323
 31
0.0
  0
LINE
  5
34
330
17
100
AcDbEntity
  8
0
100
AcDbLine
 10
29.98257672996799
 20
-1.0222977215968323
 30
0.0
 11
29.98257672996799
 21
1.0222977215968323
 31
0.0
  0
LINE
  5
35
330
17
100
AcDbEntity
  8
0
100
AcDbLine
 10
29.98257672996799
 20
1.0222977215968323
 30
0.0
 11
28.36101953862773
 21
1.8419887501417236
 31
0.0
  0
LINE
  5
36
330
17
100
AcDbEntity
  8
0
100
AcDbLine
 10
28.36101953862773
 20
1.8419887501417236
 30
0.0
 11
27.02991219124624
 21
2.31661274802525
 31
0.0
  0
LINE
  5
37
330
17
100
AcDbEntity
  8
0
100
AcDbLine
 10
27.02991219124624
 20
2.31661274802525
 30
0.0
 11
26.044270475462152
 21
2.5344551673168807
 31
0.0
  0
LINE
  5
38
330
17
100
AcDbEntity
  8
0
100
AcDbLine
 10
26.044270475462152
 20
2.5344551673168807
 30
0.0
 11
25.441285455858228
 21
2.591383007146817
 31
0.0
  0
LINE
  5
39
330
17
100
AcDbEntity
  8
0
100
AcDbLine
 10
25.441285455858228
 20
2.591383007146817
 30
0.0
 11
25.23938982598877
 21
2.5877404677908102
 31
0.0
  0
LINE
  5
3A
330
17
100
AcDbEntity
  8
0
100
AcDbLine
 10
25.23938982598877
 20
2.5877404677908102
 30
0.0
 11
23.027837746099504
 21
3.2064292818203435
 31
0.0
  0
LINE
  5
3B
330
17
100
AcDbEntity
  8
0
100
AcDbLine
 10
23.027837746099504
 20
3.2064292818203435
 30
0.0
 11
22.896780257533837
 21
4.037320130756131
 31
0.0
  0
LINE
  5
3C
330
17
100
AcDbEntity
  8
0
100
AcDbLine
 10
22.896780257533837
 20
4.037320130756131
 30
0.0
 11
22.735752605196723
 21
4.8629264312027605
 31
0.0
  0
LINE
  5
3D
330
17
100
AcDbEntity
  8
0
100
AcDbLine
 10
22.735752605196723
 20
4.8629264312027605
 30
0.0
 11
24.602327738304027
 21
6.200699103645005
 31
0.0
  0
LINE
  5
3E
330
17
100
AcDbEntity
  8
0
100
AcDbLine
 10
24.602327738304027
 20
6.200699103645005
 30
0.0
 11
24.79329339369389
 21
6.266328608556022
 31
0.0
  0
LINE
  5
3F
330
17
100
AcDbEntity
  8
0
100
AcDbLine
 10
24.79329339369389
 20
6.266328608556022
 30
0.0
 11
25.340443499122287
 21
6.526056302389659
 31
0.0
  0
LINE
  5
40
330
17
100
AcDbEntity
  8
0
100
AcDbLine
 10
25.340443499122287
 20
6.526056302389659
 30
0.0
 11
26.192137250714822
 21
7.067870537192386
 31
0.0
  0
LINE
  5
41
330
17
100
AcDbEntity
  8
0
100
AcDbLine
 10
26.192137250714822
 20
7.067870537192386
 30
0.0
 11
27.280638034741184
 21
7.969136731384711
 31
0.0
  0
LINE
  5
42
330
17
100
AcDbEntity
  8
0
100
AcDbLine
 10
27.280638034741184
 20
7.969136731384711
 30
0.0
 11
28.524052518560268
 21
9.293999565225722
 31
0.0
  0
LINE
  5
43
330
17
100
AcDbEntity
  8
0
100
AcDbLine
 10
28.524052518560268
 20
9.293999565225722
 30
0.0
 11
27.82475969203616
 21
11.215290815687302
 31
0.0
  0
LINE
  5
44
330
17
100
AcDbEntity
  8
0
100
AcDbLine
 10
27.82475969203616
 20
11.215290815687302
 30
0.0
 11
26.020643522085702
 21
11.430943203542382
 31
0.0
  0
LINE
  5
45
330
17
100
AcDbEntity
  8
0
100
AcDbLine
 10
26.020643522085702
 20
11.430943203542382
 30
0.0
 11
24.607480802495488
 21
11.421678346268173
 31
0.0
  0
LINE
  5
46
330
17
100
AcDbEntity
  8
0
100
AcDbLine
 10
24.607480802495488
 20
11.421678346268173
 30
0.0
 11
23.606774059965883
 21
11.289273939270435
 31
0.0
  0
LINE
  5
47
330
17
100
AcDbEntity
  8
0
100
AcDbLine
 10
23.606774059965883
 20
11.289273939270435
 30
0.0
 11
23.020683018661774
 21
11.136535587447744
 31
0.0
  0
LINE
  5
48
330
17
100
AcDbEntity
  8
0
100
AcDbLine
 10
23.020683018661774
 20
11.136535587447744
 30
0.0
 11
22.832209006937134
 21
11.064060347829203
 31
0.0
  0
LINE
  5
49
330
17
100
AcDbEntity
  8
0
100
AcDbLine
 10
22.832209006937134
 20
11.064060347829203
 30
0.0
 11
20.542425800133092
 21
10.889042301599632
 31
0.0
  0
LINE
  5
4A
330
17
100
AcDbEntity
  8
0
100
AcDbLine
 10
20.542425800133092
 20
10.889042301599632
 30
0.0
 11
20.1350906379882
 21
11.624999999999998
 31
0.0
  0
LINE
  5
4B
330
17
100
AcDbEntity
  8
0
100
AcDbLine
 10
20.1350906379882
 20
11.624999999999998
 30
0.0
 11
19.701400156135204
 21
12.345741447472312
 31
0.0
  0
LINE
  5
4C
330
17
100
AcDbEntity
  8
0
100
AcDbLine
 10
19.701400156135204
 20
12.345741447472312
 30
0.0
 11
20.99786183369275
 21
14.241242850608826
 31
0.0
  0
LINE
  5
4D
330
17
100
AcDbEntity
  8
0
100
AcDbLine
 10
20.99786183369275
 20
14.241242850608826
 30
0.0
 11
21.15486423821009
 21
14.368228512906263
 31
0.0
  0
LINE
  5
4E
330
17
100
AcDbEntity
  8
0
100
AcDbLine
 10
21.15486423821009
 20
14.368228512906263
 30
0.0
 11
21.580185051672764
 21
14.79942906769475
 31
0.0
  0
LINE
  5
4F
330
17
100
AcDbEntity
  8
0
100
AcDbLine
 10
21.580185051672764
 20
14.79942906769475
 30
0.0
 11
22.195204002970616
 21
15.599864324964893
 31
0.0
  0
LINE
  5
50
330
17
100
AcDbEntity
  8
0
100
AcDbLine
 10
22.195204002970616
 20
15.599864324964893
 30
0.0
 11
22.909808964527627
 21
16.819066711174017
 31
0.0
  0
LINE
  5
51
330
17
100
AcDbEntity
  8
0
100
AcDbLine
 10
22.909808964527627
 20
16.819066711174017
 30
0.0
 11
23.625106603233583
 21
18.48930333965694
 31
0.0
  0
LINE
  5
52
330
17
100
AcDbEntity
  8
0
100
AcDbLine
 10
23.625106603233583
 20
18.48930333965694
 30
0.0
 11
22.310865985527137
 21
20.055554317341826
 31
0.0
  0
LINE
  5
53
330
17
100
AcDbEntity
  8
0
100
AcDbLine
 10
22.310865985527137
 20
20.055554317341826
 30
0.0
 11
20.541793872981444
 21
19.641157203841495
 31
0.0
  0
LINE
  5
54
330
17
100
AcDbEntity
  8
0
100
AcDbLine
 10
20.541793872981444
 20
19.641157203841495
 30
0.0
 11
19.217024061225587
 21
19.149120969931545
 31
0.0
  0
LINE
  5
55
330
17
100
AcDbEntity
  8
0
100
AcDbLine
 10
19.217024061225587
 20
19.149120969931545
 30
0.0
 11
18.32195229395813
 21
18.6824396622093
 31
0.0
  0
LINE
  5
56
330
17
100
AcDbEntity
  8
0
100
AcDbLine
 10
18.32195229395813
 20
18.6824396622093
 30
0.0
 11
17.823446460317655
 21
18.338457618141796
 31
0.0
  0
LINE
  5
57
330
17
100
AcDbEntity
  8
0
100
AcDbLine
 10
17.823446460317655
 20
18.338457618141796
 30
0.0
 11
17.671126814131988
 21
18.205891261779335
 31
0.0
  0
LINE
  5
58
330
17
100
AcDbEntity
  8
0
100
AcDbLine
 10
17.671126814131988
 20
18.205891261779335
 30
0.0
 11
15.579294128754754
 21
17.258276114657214
 31
0.0
  0
LINE
  5
59
330
17
100
AcDbEntity
  8
0
100
AcDbLine
 10
15.579294128754754
 20
17.258276114657214
 30
0.0
 11
14.944811925212043
 21
17.810533302516237
 31
0.0
  0
LINE
  5
5A
330
17
100
AcDbEntity
  8
0
100
AcDbLine
 10
14.944811925212043
 20
17.810533302516237
 30
0.0
 11
14.290768086544464
 21
18.339477841438185
 31
0.0
  0
LINE
  5
5B
330
17
100
AcDbEntity
  8
0
100
AcDbLine
 10
14.290768086544464
 20
18.339477841438185
 30
0.0
 11
14.860743896502257
 21
20.56408253142937
 31
0.0
  0
LINE
  5
5C
330
17
100
AcDbEntity
  8
0
100
AcDbLine
 10
14.860743896502257
 20
20.56408253142937
 30
0.0
 11
14.964846243053572
 21
20.73710800613138
 31
0.0
  0
LINE
  5
5D
330
17
100
AcDbEntity
  8
0
100
AcDbLine
 10
14.964846243053572
 20
20.73710800613138
 30
0.0
 11
15.217037797380236
 21
21.2877722711248
 31
0.0
  0
LINE
  5
5E
330
17
100
AcDbEntity
  8
0
100
AcDbLine
 10
15.217037797380236
 20
21.2877722711248
 30
0.0
 11
15.521201586143867
 21
22.25028424566932
 31
0.0
  0
LINE
  5
5F
330
17
100
AcDbEntity
  8
0
100
AcDbLine
 10
15.521201586143867
 20
22.25028424566932
 30
0.0
 11
15.775718820421748
 21
23.640369022607565
 31
0.0
  0
LINE
  5
60
330
17
100
AcDbEntity
  8
0
100
AcDbLine
 10
15.775718820421748
 20
23.640369022607565
 30
0.0
 11
15.876624162117805
 21
25.454524258270027
 31
0.0
  0
LINE
  5
61
330
17
100
AcDbEntity
  8
0
100
AcDbLine
 10
15.876624162117805
 20
25.454524258270027
 30
0.0
 11
14.10595256785019
 21
26.47682197986686
 31
0.0
  0
LINE
  5
62
330
17
100
AcDbEntity
  8
0
100
AcDbLine
 10
14.10595256785019
 20
26.47682197986686
 30
0.0
 11
12.585300718205987
 21
25.482357772749292
 31
0.0
  0
LINE
  5
63
330
17
100
AcDbEntity
  8
0
100
AcDbLine
 10
12.585300718205987
 20
25.482357772749292
 30
0.0
 11
11.508710605102376
 21
24.56689699369457
 31
0.0
  0
LINE
  5
64
330
17
100
AcDbEntity
  8
0
100
AcDbLine
 10
11.508710605102376
 20
24.56689699369457
 30
0.0
 11
10.827232678081918
 21
23.822227438441683
 31
0.0
  0
LINE
  5
65
330
17
100
AcDbEntity
  8
0
100
AcDbLine
 10
10.827232678081918
 20
23.822227438441683
 30
0.0
 11
10.476439212804666
 21
23.328491013278196
 31
0.0
  0
LINE
  5
66
330
17
100
AcDbEntity
  8
0
100
AcDbLine
 10
10.476439212804666
 20
23.328491013278196
 30
0.0
 11
10.37864592948652
 21
23.15182299922018
 31
0.0
  0
LINE
  5
67
330
17
100
AcDbEntity
  8
0
100
AcDbLine
 10
10.37864592948652
 20
23.15182299922018
 30
0.0
 11
8.737069659555043
 21
21.54590712325853
 31
0.0
  0
LINE
  5
68
330
17
100
AcDbEntity
  8
0
100
AcDbLine
 10
8.737069659555043
 20
21.54590712325853
 30
0.0
 11
7.9519683323218
 21
21.84785343327237
 31
0.0
  0
LINE
  5
69
330
17
100
AcDbEntity
  8
0
100
AcDbLine
 10
7.9519683323218
 20
21.84785343327237
 30
0.0
 11
7.156458476441973
 21
22.121202545859976
 31
0.0
  0
LINE
  5
6A
330
17
100
AcDbEntity
  8
0
100
AcDbLine
 10
7.156458476441973
 20
22.121202545859976
 30
0.0
 11
6.93120092417204
 21
24.406590365424343
 31
0.0
  0
LINE
  5
6B
330
17
100
AcDbEntity
  8
0
100
AcDbLine
 10
6.93120092417204
 20
24.406590365424343
 30
0.0
 11
6.969846933376236
 21
24.60478622669782
 31
0.0
  0
LINE
  5
6C
330
17
100
AcDbEntity
  8
0
100
AcDbLine
 10
6.969846933376236
 20
24.60478622669782
 30
0.0
 11
7.018491205164162
 21
25.20849596459896
 31
0.0
  0
LINE
  5
6D
330
17
100
AcDbEntity
  8
0
100
AcDbLine
 10
7.018491205164162
 20
25.20849596459896
 30
0.0
 11
6.975113189489241
 21
26.216991507123932
 31
0.0
  0
LINE
  5
6E
330
17
100
AcDbEntity
  8
0
100
AcDbLine
 10
6.975113189489241
 20
26.216991507123932
 30
0.0
 11
6.738844161759751
 21
27.610293935226206
 31
0.0
  0
LINE
  5
6F
330
17
100
AcDbEntity
  8
0
100
AcDbLine
 10
6.738844161759751
 20
27.610293935226206
 30
0.0
 11
6.213186533033133
 21
29.349553882567548
 31
0.0
  0
LINE
  5
70
330
17
100
AcDbEntity
  8
0
100
AcDbLine
 10
6.213186533033133
 20
29.349553882567548
 30
0.0
 11
4.19965308880258
 21
29.70459415534424
 31
0.0
  0
LINE
  5
71
330
17
100
AcDbEntity
  8
0
100
AcDbLine
 10
4.19965308880258
 20
29.70459415534424
 30
0.0
 11
3.1108345575580754
 21
28.250009914716397
 31
0.0
  0
LINE
  5
72
330
17
100
AcDbEntity
  8
0
100
AcDbLine
 10
3.1108345575580754
 20
28.250009914716397
 30
0.0
 11
2.4122767995248706
 21
27.02154267123306
 31
0.0
  0
LINE
  5
73
330
17
100
AcDbEntity
  8
0
100
AcDbLine
 10
2.4122767995248706
 20
27.02154267123306
 30
0.0
 11
2.0265890082931226
 21
26.088703006965186
 31
0.0
  0
LINE
  5
74
330
17
100
AcDbEntity
  8
0
100
AcDbLine
 10
2.0265890082931226
 20
26.088703006965186
 30
0.0
 11
1.8658187804516901
 21
25.504764100354006
 31
0.0
  0
LINE
  5
75
330
17
100
AcDbEntity
  8
0
100
AcDbLine
 10
1.8658187804516901
 20
25.504764100354006
 30
0.0
 11
1.834347173244388
 21
25.30530319843803
 31
0.0
  0
LINE
  5
76
330
17
100
AcDbEntity
  8
0
100
AcDbLine
 10
1.834347173244388
 20
25.30530319843803
 30
0.0
 11
0.8410256439978937
 21
23.234783749071948
 31
0.0
  0
LINE
  5
77
330
17
100
AcDbEntity
  8
0
100
AcDbLine
 10
0.8410256439978937
 20
23.234783749071948
 30
0.0
 11
1.4432899320127035e-15
 21
23.25
 31
0.0
  0
LINE
  5
78
330
17
100
AcDbEntity
  8
0
100
AcDbLine
 10
1.423651904008798e-15
 20
23.25
 30
0.0
 11
-0.8410256439978907
 21
23.234783749071948
 31
0.0
  0
LINE
  5
79
330
17
100
AcDbEntity
  8
0
100
AcDbLine
 10
-0.8410256439978907
 20
23.234783749071948
 30
0.0
 11
-1.8343471732443848
 21
25.30530319843803
 31
0.0
  0
LINE
  5
7A
330
17
100
AcDbEntity
  8
0
100
AcDbLine
 10
-1.8343471732443848
 20
25.30530319843803
 30
0.0
 11
-1.865818780451687
 21
25.504764100354006
 31
0.0
  0
LINE
  5
7B
330
17
100
AcDbEntity
  8
0
100
AcDbLine
 10
-1.865818780451687
 20
25.504764100354006
 30
0.0
 11
-2.02658900829312
 21
26.088703006965186
 31
0.0
  0
LINE
  5
7C
330
17
100
AcDbEntity
  8
0
100
AcDbLine
 10
-2.02658900829312
 20
26.088703006965186
 30
0.0
 11
-2.412276799524867
 21
27.02154267123306
 31
0.0
  0
LINE
  5
7D
330
17
100
AcDbEntity
  8
0
100
AcDbLine
 10
-2.412276799524867
 20
27.02154267123306
 30
0.0
 11
-3.110834557558072
 21
28.2500099147164
 31
0.0
  0
LINE
  5
7E
330
17
100
AcDbEntity
  8
0
100
AcDbLine
 10
-3.110834557558072
 20
28.2500099147164
 30
0.0
 11
-4.199653088802576
 21
29.70459415534424
 31
0.0
  0
LINE
  5
7F
330
17
100
AcDbEntity
  8
0
100
AcDbLine
 10
-4.199653088802576
 20
29.70459415534424
 30
0.0
 11
-6.213186533033128
 21
29.349553882567548
 31
0.0
  0
LINE
  5
80
330
17
100
AcDbEntity
  8
0
100
AcDbLine
 10
-6.213186533033128
 20
29.349553882567548
 30
0.0
 11
-6.738844161759747
 21
27.610293935226206
 31
0.0
  0
LINE
  5
81
330
17
100
AcDbEntity
  8
0
100
AcDbLine
 10
-6.738844161759747
 20
27.610293935226206
 30
0.0
 11
-6.975113189489238
 21
26.216991507123936
 31
0.0
  0
LINE
  5
82
330
17
100
AcDbEntity
  8
0
100
AcDbLine
 10
-6.975113189489238
 20
26.216991507123936
 30
0.0
 11
-7.018491205164159
 21
25.20849596459896
 31
0.0
  0
LINE
  5
83
330
17
100
AcDbEntity
  8
0
100
AcDbLine
 10
-7.018491205164159
 20
25.20849596459896
 30
0.0
 11
-6.969846933376232
 21
24.60478622669782
 31
0.0
  0
LINE
  5
84
330
17
100
AcDbEntity
  8
0
100
AcDbLine
 10
-6.969846933376232
 20
24.60478622669782
 30
0.0
 11
-6.931200924172037
 21
24.406590365424343
 31
0.0
  0
LINE
  5
85
330
17
100
AcDbEntity
  8
0
100
AcDbLine
 10
-6.931200924172037
 20
24.406590365424343
 30
0.0
 11
-7.15645847644197
 21
22.121202545859976
 31
0.0
  0
LINE
  5
86
330
17
100
AcDbEntity
  8
0
100
AcDbLine
 10
-7.15645847644197
 20
22.121202545859976
 30
0.0
 11
-7.951968332321798
 21
21.84785343327237
 31
0.0
  0
LINE
  5
87
330
17
100
AcDbEntity
  8
0
100
AcDbLine
 10
-7.951968332321798
 20
21.84785343327237
 30
0.0
 11
-8.737069659555036
 21
21.545907123258534
 31
0.0
  0
LINE
  5
88
330
17
100
AcDbEntity
  8
0
100
AcDbLine
 10
-8.737069659555036
 20
21.545907123258534
 30
0.0
 11
-10.378645929486513
 21
23.151822999220183
 31
0.0
  0
LINE
  5
89
330
17
100
AcDbEntity
  8
0
100
AcDbLine
 10
-10.378645929486513
 20
23.151822999220183
 30
0.0
 11
-10.476439212804651
 21
23.328491013278203
 31
0.0
  0
LINE
  5
8A
330
17
100
AcDbEntity
  8
0
100
AcDbLine
 10
-10.476439212804651
 20
23.328491013278203
 30
0.0
 11
-10.827232678081911
 21
23.822227438441686
 31
0.0
  0
LINE
  5
8B
330
17
100
AcDbEntity
  8
0
100
AcDbLine
 10
-10.827232678081911
 20
23.822227438441686
 30
0.0
 11
-11.508710605102372
 21
24.56689699369457
 31
0.0
  0
LINE
  5
8C
330
17
100
AcDbEntity
  8
0
100
AcDbLine
 10
-11.508710605102372
 20
24.56689699369457
 30
0.0
 11
-12.585300718205984
 21
25.482357772749296
 31
0.0
  0
LINE
  5
8D
330
17
100
AcDbEntity
  8
0
100
AcDbLine
 10
-12.585300718205984
 20
25.482357772749296
 30
0.0
 11
-14.105952567850183
 21
26.476821979866862
 31
0.0
  0
LINE
  5
8E
330
17
100
AcDbEntity
  8
0
100
AcDbLine
 10
-14.105952567850183
 20
26.476821979866862
 30
0.0
 11
-15.8766241621178
 21
25.454524258270034
 31
0.0
  0
LINE
  5
8F
330
17
100
AcDbEntity
  8
0
100
AcDbLine
 10
-15.8766241621178
 20
25.454524258270034
 30
0.0
 11
-15.775718820421735
 21
23.640369022607576
 31
0.0
  0
LINE
  5
90
330
17
100
AcDbEntity
  8
0
100
AcDbLine
 10
-15.775718820421735
 20
23.640369022607576
 30
0.0
 11
-15.521201586143855
 21
22.250284245669327
 31
0.0
  0
LINE
  5
91
330
17
100
AcDbEntity
  8
0
100
AcDbLine
 10
-15.521201586143855
 20
22.250284245669327
 30
0.0
 11
-15.217037797380227
 21
21.28777227112481
 31
0.0
  0
LINE
  5
92
330
17
100
AcDbEntity
  8
0
100
AcDbLine
 10
-15.217037797380227
 20
21.28777227112481
 30
0.0
 11
-14.964846243053568
 21
20.737108006131383
 31
0.0
  0
LINE
  5
93
330
17
100
AcDbEntity
  8
0
100
AcDbLine
 10
-14.964846243053568
 20
20.737108006131383
 30
0.0
 11
-14.860743896502253
 21
20.56408253142937
 31
0.0
  0
LINE
  5
94
330
17
100
AcDbEntity
  8
0
100
AcDbLine
 10
-14.860743896502253
 20
20.56408253142937
 30
0.0
 11
-14.290768086544459
 21
18.339477841438192
 31
0.0
  0
LINE
  5
95
330
17
100
AcDbEntity
  8
0
100
AcDbLine
 10
-14.290768086544459
 20
18.339477841438192
 30
0.0
 11
-14.94481192521204
 21
17.810533302516237
 31
0.0
  0
LINE
  5
96
330
17
100
AcDbEntity
  8
0
100
AcDbLine
 10
-14.94481192521204
 20
17.810533302516237
 30
0.0
 11
-15.579294128754748
 21
17.258276114657217
 31
0.0
  0
LINE
  5
97
330
17
100
AcDbEntity
  8
0
100
AcDbLine
 10
-15.579294128754748
 20
17.258276114657217
 30
0.0
 11
-17.671126814131977
 21
18.205891261779342
 31
0.0
  0
LINE
  5
98
330
17
100
AcDbEntity
  8
0
100
AcDbLine
 10
-17.671126814131977
 20
18.205891261779342
 30
0.0
 11
-17.823446460317648
 21
18.3384576181418
 31
0.0
  0
LINE
  5
99
330
17
100
AcDbEntity
  8
0
100
AcDbLine
 10
-17.823446460317648
 20
18.3384576181418
 30
0.0
 11
-18.321952293958127
 21
18.682439662209305
 31
0.0
  0
LINE
  5
9A
330
17
100
AcDbEntity
  8
0
100
AcDbLine
 10
-18.321952293958127
 20
18.682439662209305
 30
0.0
 11
-19.217024061225583
 21
19.14912096993155
 31
0.0
  0
LINE
  5
9B
330
17
100
AcDbEntity
  8
0
100
AcDbLine
 10
-19.217024061225583
 20
19.14912096993155
 30
0.0
 11
-20.54179387298144
 21
19.641157203841495
 31
0.0
  0
LINE
  5
9C
330
17
100
AcDbEntity
  8
0
100
AcDbLine
 10
-20.54179387298144
 20
19.641157203841495
 30
0.0
 11
-22.310865985527133
 21
20.055554317341834
 31
0.0
  0
LINE
  5
9D
330
17
100
AcDbEntity
  8
0
100
AcDbLine
 10
-22.310865985527133
 20
20.055554317341834
 30
0.0
 11
-23.62510660323358
 21
18.489303339656942
 31
0.0
  0
LINE
  5
9E
330
17
100
AcDbEntity
  8
0
100
AcDbLine
 10
-23.62510660323358
 20
18.489303339656942
 30
0.0
 11
-22.90980896452762
 21
16.819066711174028
 31
0.0
  0
LINE
  5
9F
330
17
100
AcDbEntity
  8
0
100
AcDbLine
 10
-22.90980896452762
 20
16.819066711174028
 30
0.0
 11
-22.19520400297061
 21
15.599864324964898
 31
0.0
  0
LINE
  5
A0
330
17
100
AcDbEntity
  8
0
100
AcDbLine
 10
-22.19520400297061
 20
15.599864324964898
 30
0.0
 11
-21.580185051672757
 21
14.799429067694758
 31
0.0
  0
LINE
  5
A1
330
17
100
AcDbEntity
  8
0
100
AcDbLine
 10
-21.580185051672757
 20
14.799429067694758
 30
0.0
 11
-21.15486423821009
 21
14.368228512906263
 31
0.0
  0
LINE
  5
A2
330
17
100
AcDbEntity
  8
0
100
AcDbLine
 10
-21.15486423821009
 20
14.368228512906263
 30
0.0
 11
-20.99786183369275
 21
14.241242850608826
 31
0.0
  0
LINE
  5
A3
330
17
100
AcDbEntity
  8
0
100
AcDbLine
 10
-20.99786183369275
 20
14.241242850608826
 30
0.0
 11
-19.7014001561352
 21
12.345741447472319
 31
0.0
  0
LINE
  5
A4
330
17
100
AcDbEntity
  8
0
100
AcDbLine
 10
-19.7014001561352
 20
12.345741447472319
 30
0.0
 11
-20.135090637988196
 21
11.625000000000007
 31
0.0
  0
LINE
  5
A5
330
17
100
AcDbEntity
  8
0
100
AcDbLine
 10
-20.135090637988196
 20
11.625000000000007
 30
0.0
 11
-20.542425800133092
 21
10.889042301599636
 31
0.0
  0
LINE
  5
A6
330
17
100
AcDbEntity
  8
0
100
AcDbLine
 10
-20.542425800133092
 20
10.889042301599636
 30
0.0
 11
-22.83220900693713
 21
11.06406034782921
 31
0.0
  0
LINE
  5
A7
330
17
100
AcDbEntity
  8
0
100
AcDbLine
 10
-22.83220900693713
 20
11.06406034782921
 30
0.0
 11
-23.020683018661774
 21
11.136535587447751
 31
0.0
  0
LINE
  5
A8
330
17
100
AcDbEntity
  8
0
100
AcDbLine
 10
-23.020683018661774
 20
11.136535587447751
 30
0.0
 11
-23.606774059965883
 21
11.289273939270437
 31
0.0
  0
LINE
  5
A9
330
17
100
AcDbEntity
  8
0
100
AcDbLine
 10
-23.606774059965883
 20
11.289273939270437
 30
0.0
 11
-24.607480802495488
 21
11.421678346268173
 31
0.0
  0
LINE
  5
AA
330
17
100
AcDbEntity
  8
0
100
AcDbLine
 10
-24.607480802495488
 20
11.421678346268173
 30
0.0
 11
-26.020643522085702
 21
11.430943203542382
 31
0.0
  0
LINE
  5
AB
330
17
100
AcDbEntity
  8
0
100
AcDbLine
 10
-26.020643522085702
 20
11.430943203542382
 30
0.0
 11
-27.824759692036157
 21
11.215290815687307
 31
0.0
  0
LINE
  5
AC
330
17
100
AcDbEntity
  8
0
100
AcDbLine
 10
-27.824759692036157
 20
11.215290815687307
 30
0.0
 11
-28.524052518560268
 21
9.293999565225727
 31
0.0
  0
LINE
  5
AD
330
17
100
AcDbEntity
  8
0
100
AcDbLine
 10
-28.524052518560268
 20
9.293999565225727
 30
0.0
 11
-27.28063803474118
 21
7.96913673138472
 31
0.0
  0
LINE
  5
AE
330
17
100
AcDbEntity
  8
0
100
AcDbLine
 10
-27.28063803474118
 20
7.96913673138472
 30
0.0
 11
-26.19213725071482
 21
7.067870537192395
 31
0.0
  0
LINE
  5
AF
330
17
100
AcDbEntity
  8
0
100
AcDbLine
 10
-26.19213725071482
 20
7.067870537192395
 30
0.0
 11
-25.340443499122287
 21
6.526056302389668
 31
0.0
  0
LINE
  5
B0
330
17
100
AcDbEntity
  8
0
100
AcDbLine
 10
-25.340443499122287
 20
6.526056302389668
 30
0.0
 11
-24.79329339369389
 21
6.266328608556023
 31
0.0
  0
LINE
  5
B1
330
17
100
AcDbEntity
  8
0
100
AcDbLine
 10
-24.79329339369389
 20
6.266328608556023
 30
0.0
 11
-24.602327738304027
 21
6.200699103645005
 31
0.0
  0
LINE
  5
B2
330
17
100
AcDbEntity
  8
0
100
AcDbLine
 10
-24.602327738304027
 20
6.200699103645005
 30
0.0
 11
-22.735752605196723
 21
4.862926431202765
 31
0.0
  0
LINE
  5
B3
330
17
100
AcDbEntity
  8
0
100
AcDbLine
 10
-22.735752605196723
 20
4.862926431202765
 30
0.0
 11
-22.896780257533837
 21
4.037320130756129
 31
0.0
  0
LINE
  5
B4
330
17
100
AcDbEntity
  8
0
100
AcDbLine
 10
-22.896780257533837
 20
4.037320130756129
 30
0.0
 11
-23.027837746099504
 21
3.2064292818203457
 31
0.0
  0
LINE
  5
B5
330
17
100
AcDbEntity
  8
0
100
AcDbLine
 10
-23.027837746099504
 20
3.2064292818203457
 30
0.0
 11
-25.23938982598877
 21
2.5877404677908173
 31
0.0
  0
LINE
  5
B6
330
17
100
AcDbEntity
  8
0
100
AcDbLine
 10
-25.23938982598877
 20
2.5877404677908173
 30
0.0
 11
-25.441285455858228
 21
2.5913830071468227
 31
0.0
  0
LINE
  5
B7
330
17
100
AcDbEntity
  8
0
100
AcDbLine
 10
-25.441285455858228
 20
2.5913830071468227
 30
0.0
 11
-26.044270475462152
 21
2.5344551673168803
 31
0.0
  0
LINE
  5
B8
330
17
100
AcDbEntity
  8
0
100
AcDbLine
 10
-26.044270475462152
 20
2.5344551673168803
 30
0.0
 11
-27.02991219124624
 21
2.3166127480252494
 31
0.0
  0
LINE
  5
B9
330
17
100
AcDbEntity
  8
0
100
AcDbLine
 10
-27.02991219124624
 20
2.3166127480252494
 30
0.0
 11
-28.36101953862773
 21
1.841988750141722
 31
0.0
  0
LINE
  5
BA
330
17
100
AcDbEntity
  8
0
100
AcDbLine
 10
-28.36101953862773
 20
1.841988750141722
 30
0.0
 11
-29.98257672996799
 21
1.0222977215968359
 31
0.0
  0
LINE
  5
BB
330
17
100
AcDbEntity
  8
0
100
AcDbLine
 10
-29.98257672996799
 20
1.0222977215968359
 30
0.0
 11
-29.98257672996799
 21
-1.0222977215968283
 31
0.0
  0
LINE
  5
BC
330
17
100
AcDbEntity
  8
0
100
AcDbLine
 10
-29.98257672996799
 20
-1.0222977215968285
 30
0.0
 11
-28.36101953862773
 21
-1.8419887501417151
 31
0.0
  0
LINE
  5
BD
330
17
100
AcDbEntity
  8
0
100
AcDbLine
 10
-28.36101953862773
 20
-1.8419887501417151
 30
0.0
 11
-27.02991219124624
 21
-2.316612748025243
 31
0.0
  0
LINE
  5
BE
330
17
100
AcDbEntity
  8
0
100
AcDbLine
 10
-27.02991219124624
 20
-2.316612748025243
 30
0.0
 11
-26.044270475462152
 21
-2.534455167316874
 31
0.0
  0
LINE
  5
BF
330
17
100
AcDbEntity
  8
0
100
AcDbLine
 10
-26.044270475462152
 20
-2.534455167316874
 30
0.0
 11
-25.441285455858228
 21
-2.5913830071468165
 31
0.0
  0
LINE
  5
C0
330
17
100
AcDbEntity
  8
0
100
AcDbLine
 10
-25.441285455858228
 20
-2.5913830071468165
 30
0.0
 11
-25.23938982598877
 21
-2.587740467790811
 31
0.0
  0
LINE
  5
C1
330
17
100
AcDbEntity
  8
0
100
AcDbLine
 10
-25.23938982598877
 20
-2.587740467790811
 30
0.0
 11
-23.027837746099504
 21
-3.20642928182034
 31
0.0
  0
LINE
  5
C2
330
17
100
AcDbEntity
  8
0
100
AcDbLine
 10
-23.027837746099504
 20
-3.20642928182034
 30
0.0
 11
-22.896780257533837
 21
-4.0373201307561235
 31
0.0
  0
LINE
  5
C3
330
17
100
AcDbEntity
  8
0
100
AcDbLine
 10
-22.896780257533837
 20
-4.0373201307561235
 30
0.0
 11
-22.735752605196723
 21
-4.862926431202759
 31
0.0
  0
LINE
  5
C4
330
17
100
AcDbEntity
  8
0
100
AcDbLine
 10
-22.735752605196723
 20
-4.862926431202759
 30
0.0
 11
-24.602327738304027
 21
-6.200699103644999
 31
0.0
  0
LINE
  5
C5
330
17
100
AcDbEntity
  8
0
100
AcDbLine
 10
-24.602327738304027
 20
-6.200699103644999
 30
0.0
 11
-24.793293393693894
 21
-6.266328608556018
 31
0.0
  0
LINE
  5
C6
330
17
100
AcDbEntity
  8
0
100
AcDbLine
 10
-24.793293393693894
 20
-6.266328608556018
 30
0.0
 11
-25.340443499122287
 21
-6.526056302389661
 31
0.0
  0
LINE
  5
C7
330
17
100
AcDbEntity
  8
0
100
AcDbLine
 10
-25.340443499122287
 20
-6.526056302389661
 30
0.0
 11
-26.19213725071482
 21
-7.0678705371923884
 31
0.0
  0
LINE
  5
C8
330
17
100
AcDbEntity
  8
0
100
AcDbLine
 10
-26.19213725071482
 20
-7.0678705371923884
 30
0.0
 11
-27.280638034741184
 21
-7.9691367313847135
 31
0.0
  0
LINE
  5
C9
330
17
100
AcDbEntity
  8
0
100
AcDbLine
 10
-27.280638034741184
 20
-7.9691367313847135
 30
0.0
 11
-28.524052518560268
 21
-9.29399956522572
 31
0.0
  0
LINE
  5
CA
330
17
100
AcDbEntity
  8
0
100
AcDbLine
 10
-28.524052518560268
 20
-9.29399956522572
 30
0.0
 11
-27.82475969203616
 21
-11.2152908156873
 31
0.0
  0
LINE
  5
CB
330
17
100
AcDbEntity
  8
0
100
AcDbLine
 10
-27.82475969203616
 20
-11.2152908156873
 30
0.0
 11
-26.020643522085706
 21
-11.430943203542377
 31
0.0
  0
LINE
  5
CC
330
17
100
AcDbEntity
  8
0
100
AcDbLine
 10
-26.020643522085706
 20
-11.430943203542377
 30
0.0
 11
-24.60748080249549
 21
-11.421678346268166
 31
0.0
  0
LINE
  5
CD
330
17
100
AcDbEntity
  8
0
100
AcDbLine
 10
-24.60748080249549
 20
-11.421678346268166
 30
0.0
 11
-23.606774059965886
 21
-11.28927393927043
 31
0.0
  0
LINE
  5
CE
330
17
100
AcDbEntity
  8
0
100
AcDbLine
 10
-23.606774059965886
 20
-11.28927393927043
 30
0.0
 11
-23.020683018661774
 21
-11.136535587447744
 31
0.0
  0
LINE
  5
CF
330
17
100
AcDbEntity
  8
0
100
AcDbLine
 10
-23.020683018661774
 20
-11.136535587447744
 30
0.0
 11
-22.832209006937134
 21
-11.064060347829205
 31
0.0
  0
LINE
  5
D0
330
17
100
AcDbEntity
  8
0
100
AcDbLine
 10
-22.832209006937134
 20
-11.064060347829205
 30
0.0
 11
-20.542425800133092
 21
-10.88904230159963
 31
0.0
  0
LINE
  5
D1
330
17
100
AcDbEntity
  8
0
100
AcDbLine
 10
-20.542425800133092
 20
-10.88904230159963
 30
0.0
 11
-20.1350906379882
 21
-11.625000000000002
 31
0.0
  0
LINE
  5
D2
330
17
100
AcDbEntity
  8
0
100
AcDbLine
 10
-20.1350906379882
 20
-11.625000000000002
 30
0.0
 11
-19.7014001561352
 21
-12.345741447472315
 31
0.0
  0
LINE
  5
D3
330
17
100
AcDbEntity
  8
0
100
AcDbLine
 10
-19.7014001561352
 20
-12.345741447472315
 30
0.0
 11
-20.997861833692752
 21
-14.241242850608822
 31
0.0
  0
LINE
  5
D4
330
17
100
AcDbEntity
  8
0
100
AcDbLine
 10
-20.997861833692752
 20
-14.241242850608822
 30
0.0
 11
-21.154864238210095
 21
-14.368228512906262
 31
0.0
  0
LINE
  5
D5
330
17
100
AcDbEntity
  8
0
100
AcDbLine
 10
-21.154864238210095
 20
-14.368228512906262
 30
0.0
 11
-21.58018505167276
 21
-14.799429067694751
 31
0.0
  0
LINE
  5
D6
330
17
100
AcDbEntity
  8
0
100
AcDbLine
 10
-21.58018505167276
 20
-14.799429067694751
 30
0.0
 11
-22.195204002970616
 21
-15.599864324964893
 31
0.0
  0
LINE
  5
D7
330
17
100
AcDbEntity
  8
0
100
AcDbLine
 10
-22.195204002970616
 20
-15.599864324964893
 30
0.0
 11
-22.909808964527627
 21
-16.81906671117402
 31
0.0
  0
LINE
  5
D8
330
17
100
AcDbEntity
  8
0
100
AcDbLine
 10
-22.909808964527627
 20
-16.81906671117402
 30
0.0
 11
-23.625106603233583
 21
-18.48930333965694
 31
0.0
  0
LINE
  5
D9
330
17
100
AcDbEntity
  8
0
100
AcDbLine
 10
-23.625106603233583
 20
-18.48930333965694
 30
0.0
 11
-22.310865985527137
 21
-20.055554317341826
 31
0.0
  0
LINE
  5
DA
330
17
100
AcDbEntity
  8
0
100
AcDbLine
 10
-22.310865985527137
 20
-20.055554317341826
 30
0.0
 11
-20.541793872981444
 21
-19.64115720384149
 31
0.0
  0
LINE
  5
DB
330
17
100
AcDbEntity
  8
0
100
AcDbLine
 10
-20.541793872981444
 20
-19.64115720384149
 30
0.0
 11
-19.21702406122559
 21
-19.14912096993154
 31
0.0
  0
LINE
  5
DC
330
17
100
AcDbEntity
  8
0
100
AcDbLine
 10
-19.21702406122559
 20
-19.14912096993154
 30
0.0
 11
-18.321952293958134
 21
-18.682439662209298
 31
0.0
  0
LINE
  5
DD
330
17
100
AcDbEntity
  8
0
100
AcDbLine
 10
-18.321952293958134
 20
-18.682439662209298
 30
0.0
 11
-17.82344646031765
 21
-18.338457618141796
 31
0.0
  0
LINE
  5
DE
330
17
100
AcDbEntity
  8
0
100
AcDbLine
 10
-17.82344646031765
 20
-18.338457618141796
 30
0.0
 11
-17.671126814131984
 21
-18.20589126177934
 31
0.0
  0
LINE
  5
DF
330
17
100
AcDbEntity
  8
0
100
AcDbLine
 10
-17.671126814131984
 20
-18.20589126177934
 30
0.0
 11
-15.579294128754754
 21
-17.258276114657214
 31
0.0
  0
LINE
  5
E0
330
17
100
AcDbEntity
  8
0
100
AcDbLine
 10
-15.579294128754754
 20
-17.258276114657214
 30
0.0
 11
-14.944811925212043
 21
-17.810533302516237
 31
0.0
  0
LINE
  5
E1
330
17
100
AcDbEntity
  8
0
100
AcDbLine
 10
-14.944811925212043
 20
-17.810533302516237
 30
0.0
 11
-14.29076808654446
 21
-18.33947784143819
 31
0.0
  0
LINE
  5
E2
330
17
100
AcDbEntity
  8
0
100
AcDbLine
 10
-14.29076808654446
 20
-18.33947784143819
 30
0.0
 11
-14.860743896502267
 21
-20.564082531429364
 31
0.0
  0
LINE
  5
E3
330
17
100
AcDbEntity
  8
0
100
AcDbLine
 10
-14.860743896502267
 20
-20.564082531429364
 30
0.0
 11
-14.964846243053582
 21
-20.737108006131372
 31
0.0
  0
LINE
  5
E4
330
17
100
AcDbEntity
  8
0
100
AcDbLine
 10
-14.964846243053582
 20
-20.737108006131372
 30
0.0
 11
-15.21703779738025
 21
-21.28777227112479
 31
0.0
  0
LINE
  5
E5
330
17
100
AcDbEntity
  8
0
100
AcDbLine
 10
-15.21703779738025
 20
-21.28777227112479
 30
0.0
 11
-15.521201586143873
 21
-22.250284245669317
 31
0.0
  0
LINE
  5
E6
330
17
100
AcDbEntity
  8
0
100
AcDbLine
 10
-15.521201586143873
 20
-22.250284245669317
 30
0.0
 11
-15.775718820421751
 21
-23.640369022607565
 31
0.0
  0
LINE
  5
E7
330
17
100
AcDbEntity
  8
0
100
AcDbLine
 10
-15.775718820421751
 20
-23.640369022607565
 30
0.0
 11
-15.876624162117826
 21
-25.454524258270013
 31
0.0
  0
LINE
  5
E8
330
17
100
AcDbEntity
  8
0
100
AcDbLine
 10
-15.876624162117826
 20
-25.454524258270013
 30
0.0
 11
-14.105952567850188
 21
-26.47682197986686
 31
0.0
  0
LINE
  5
E9
330
17
100
AcDbEntity
  8
0
100
AcDbLine
 10
-14.105952567850188
 20
-26.47682197986686
 30
0.0
 11
-12.585300718206001
 21
-25.482357772749285
 31
0.0
  0
LINE
  5
EA
330
17
100
AcDbEntity
  8
0
100
AcDbLine
 10
-12.585300718206001
 20
-25.482357772749285
 30
0.0
 11
-11.508710605102388
 21
-24.566896993694566
 31
0.0
  0
LINE
  5
EB
330
17
100
AcDbEntity
  8
0
100
AcDbLine
 10
-11.508710605102388
 20
-24.566896993694566
 30
0.0
 11
-10.82723267808192
 21
-23.822227438441683
 31
0.0
  0
LINE
  5
EC
330
17
100
AcDbEntity
  8
0
100
AcDbLine
 10
-10.82723267808192
 20
-23.822227438441683
 30
0.0
 11
-10.476439212804669
 21
-23.328491013278196
 31
0.0
  0
LINE
  5
ED
330
17
100
AcDbEntity
  8
0
100
AcDbLine
 10
-10.476439212804669
 20
-23.328491013278196
 30
0.0
 11
-10.378645929486522
 21
-23.151822999220176
 31
0.0
  0
LINE
  5
EE
330
17
100
AcDbEntity
  8
0
100
AcDbLine
 10
-10.378645929486522
 20
-23.151822999220176
 30
0.0
 11
-8.737069659555042
 21
-21.54590712325853
 31
0.0
  0
LINE
  5
EF
330
17
100
AcDbEntity
  8
0
100
AcDbLine
 10
-8.737069659555042
 20
-21.54590712325853
 30
0.0
 11
-7.951968332321794
 21
-21.84785343327237
 31
0.0
  0
LINE
  5
F0
330
17
100
AcDbEntity
  8
0
100
AcDbLine
 10
-7.951968332321794
 20
-21.84785343327237
 30
0.0
 11
-7.156458476441981
 21
-22.121202545859973
 31
0.0
  0
LINE
  5
F1
330
17
100
AcDbEntity
  8
0
100
AcDbLine
 10
-7.156458476441981
 20
-22.121202545859973
 30
0.0
 11
-6.9312009241720425
 21
-24.40659036542434
 31
0.0
  0
LINE
  5
F2
330
17
100
AcDbEntity
  8
0
100
AcDbLine
 10
-6.9312009241720425
 20
-24.40659036542434
 30
0.0
 11
-6.969846933376239
 21
-24.60478622669782
 31
0.0
  0
LINE
  5
F3
330
17
100
AcDbEntity
  8
0
100
AcDbLine
 10
-6.969846933376239
 20
-24.60478622669782
 30
0.0
 11
-7.018491205164165
 21
-25.20849596459896
 31
0.0
  0
LINE
  5
F4
330
17
100
AcDbEntity
  8
0
100
AcDbLine
 10
-7.018491205164165
 20
-25.20849596459896
 30
0.0
 11
-6.975113189489232
 21
-26.216991507123936
 31
0.0
  0
LINE
  5
F5
330
17
100
AcDbEntity
  8
0
100
AcDbLine
 10
-6.975113189489232
 20
-26.216991507123936
 30
0.0
 11
-6.738844161759741
 21
-27.610293935226206
 31
0.0
  0
LINE
  5
F6
330
17
100
AcDbEntity
  8
0
100
AcDbLine
 10
-6.738844161759741
 20
-27.610293935226206
 30
0.0
 11
-6.213186533033116
 21
-29.34955388256755
 31
0.0
  0
LINE
  5
F7
330
17
100
AcDbEntity
  8
0
100
AcDbLine
 10
-6.213186533033116
 20
-29.34955388256755
 30
0.0
 11
-4.19965308880259
 21
-29.70459415534424
 31
0.0
  0
LINE
  5
F8
330
17
100
AcDbEntity
  8
0
100
AcDbLine
 10
-4.19965308880259
 20
-29.70459415534424
 30
0.0
 11
-3.110834557558079
 21
-28.250009914716397
 31
0.0
  0
LINE
  5
F9
330
17
100
AcDbEntity
  8
0
100
AcDbLine
 10
-3.110834557558079
 20
-28.250009914716397
 30
0.0
 11
-2.4122767995248737
 21
-27.02154267123306
 31
0.0
  0
LINE
  5
FA
330
17
100
AcDbEntity
  8
0
100
AcDbLine
 10
-2.4122767995248737
 20
-27.02154267123306
 30
0.0
 11
-2.0265890082931146
 21
-26.088703006965186
 31
0.0
  0
LINE
  5
FB
330
17
100
AcDbEntity
  8
0
100
AcDbLine
 10
-2.0265890082931146
 20
-26.088703006965186
 30
0.0
 11
-1.8658187804516821
 21
-25.50476410035401
 31
0.0
  0
LINE
  5
FC
330
17
100
AcDbEntity
  8
0
100
AcDbLine
 10
-1.8658187804516821
 20
-25.50476410035401
 30
0.0
 11
-1.8343471732443797
 21
-25.305303198438033
 31
0.0
  0
LINE
  5
FD
330
17
100
AcDbEntity
  8
0
100
AcDbLine
 10
-1.8343471732443797
 20
-25.305303198438033
 30
0.0
 11
-0.841025643997881
 21
-23.234783749071948
 31
0.0
  0
LINE
  5
FE
330
17
100
AcDbEntity
  8
0
100
AcDbLine
 10
-0.841025643997881
 20
-23.234783749071948
 30
0.0
 11
-4.218847493575595e-15
 21
-23.25
 31
0.0
  0
LINE
  5
FF
330
17
100
AcDbEntity
  8
0
100
AcDbLine
 10
-4.270955712026394e-15
 20
-23.25
 30
0.0
 11
0.8410256439978725
 21
-23.234783749071948
 31
0.0
  0
LINE
  5
100
330
17
100
AcDbEntity
  8
0
100
AcDbLine
 10
0.8410256439978725
 20
-23.234783749071948
 30
0.0
 11
1.8343471732443704
 21
-25.305303198438033
 31
0.0
  0
LINE
  5
101
330
17
100
AcDbEntity
  8
0
100
AcDbLine
 10
1.8343471732443704
 20
-25.305303198438033
 30
0.0
 11
1.8658187804516728
 21
-25.50476410035401
 31
0.0
  0
LINE
  5
102
330
17
100
AcDbEntity
  8
0
100
AcDbLine
 10
1.8658187804516728
 20
-25.50476410035401
 30
0.0
 11
2.026589008293105
 21
-26.088703006965186
 31
0.0
  0
LINE
  5
103
330
17
100
AcDbEntity
  8
0
100
AcDbLine
 10
2.026589008293105
 20
-26.088703006965186
 30
0.0
 11
2.412276799524864
 21
-27.021542671233064
 31
0.0
  0
LINE
  5
104
330
17
100
AcDbEntity
  8
0
100
AcDbLine
 10
2.412276799524864
 20
-27.021542671233064
 30
0.0
 11
3.1108345575580687
 21
-28.2500099147164
 31
0.0
  0
LINE
  5
105
330
17
100
AcDbEntity
  8
0
100
AcDbLine
 10
3.1108345575580687
 20
-28.2500099147164
 30
0.0
 11
4.199653088802579
 21
-29.70459415534424
 31
0.0
  0
LINE
  5
106
330
17
100
AcDbEntity
  8
0
100
AcDbLine
 10
4.199653088802579
 20
-29.70459415534424
 30
0.0
 11
6.213186533033106
 21
-29.349553882567555
 31
0.0
  0
LINE
  5
107
330
17
100
AcDbEntity
  8
0
100
AcDbLine
 10
6.213186533033106
 20
-29.349553882567555
 30
0.0
 11
6.738844161759732
 21
-27.61029393522621
 31
0.0
  0
LINE
  5
108
330
17
100
AcDbEntity
  8
0
100
AcDbLine
 10
6.738844161759732
 20
-27.61029393522621
 30
0.0
 11
6.975113189489223
 21
-26.21699150712394
 31
0.0
  0
LINE
  5
109
330
17
100
AcDbEntity
  8
0
100
AcDbLine
 10
6.975113189489223
 20
-26.21699150712394
 30
0.0
 11
7.018491205164156
 21
-25.20849596459896
 31
0.0
  0
LINE
  5
10A
330
17
100
AcDbEntity
  8
0
100
AcDbLine
 10
7.018491205164156
 20
-25.20849596459896
 30
0.0
 11
6.969846933376229
 21
-24.60478622669782
 31
0.0
  0
LINE
  5
10B
330
17
100
AcDbEntity
  8
0
100
AcDbLine
 10
6.969846933376229
 20
-24.60478622669782
 30
0.0
 11
6.9312009241720345
 21
-24.406590365424343
 31
0.0
  0
LINE
  5
10C
330
17
100
AcDbEntity
  8
0
100
AcDbLine
 10
6.9312009241720345
 20
-24.406590365424343
 30
0.0
 11
7.156458476441973
 21
-22.121202545859976
 31
0.0
  0
LINE
  5
10D
330
17
100
AcDbEntity
  8
0
100
AcDbLine
 10
7.156458476441973
 20
-22.121202545859976
 30
0.0
 11
7.951968332321784
 21
-21.847853433272373
 31
0.0
  0
LINE
  5
10E
330
17
100
AcDbEntity
  8
0
100
AcDbLine
 10
7.951968332321784
 20
-21.847853433272373
 30
0.0
 11
8.737069659555035
 21
-21.545907123258537
 31
0.0
  0
LINE
  5
10F
330
17
100
AcDbEntity
  8
0
100
AcDbLine
 10
8.737069659555035
 20
-21.545907123258537
 30
0.0
 11
10.378645929486515
 21
-23.151822999220183
 31
0.0
  0
LINE
  5
110
330
17
100
AcDbEntity
  8
0
100
AcDbLine
 10
10.378645929486515
 20
-23.151822999220183
 30
0.0
 11
10.47643921280466
 21
-23.328491013278196
 31
0.0
  0
LINE
  5
111
330
17
100
AcDbEntity
  8
0
100
AcDbLine
 10
10.47643921280466
 20
-23.328491013278196
 30
0.0
 11
10.827232678081911
 21
-23.822227438441686
 31
0.0
  0
LINE
  5
112
330
17
100
AcDbEntity
  8
0
100
AcDbLine
 10
10.827232678081911
 20
-23.822227438441686
 30
0.0
 11
11.50871060510238
 21
-24.566896993694566
 31
0.0
  0
LINE
  5
113
330
17
100
AcDbEntity
  8
0
100
AcDbLine
 10
11.50871060510238
 20
-24.566896993694566
 30
0.0
 11
12.58530071820599
 21
-25.48235777274929
 31
0.0
  0
LINE
  5
114
330
17
100
AcDbEntity
  8
0
100
AcDbLine
 10
12.58530071820599
 20
-25.48235777274929
 30
0.0
 11
14.10595256785018
 21
-26.476821979866866
 31
0.0
  0
LINE
  5
115
330
17
100
AcDbEntity
  8
0
100
AcDbLine
 10
14.10595256785018
 20
-26.476821979866866
 30
0.0
 11
15.87662416211782
 21
-25.45452425827002
 31
0.0
  0
LINE
  5
116
330
17
100
AcDbEntity
  8
0
100
AcDbLine
 10
15.87662416211782
 20
-25.45452425827002
 30
0.0
 11
15.77571882042174
 21
-23.640369022607572
 31
0.0
  0
LINE
  5
117
330
17
100
AcDbEntity
  8
0
100
AcDbLine
 10
15.77571882042174
 20
-23.640369022607572
 30
0.0
 11
15.521201586143864
 21
-22.250284245669324
 31
0.0
  0
LINE
  5
118
330
17
100
AcDbEntity
  8
0
100
AcDbLine
 10
15.521201586143864
 20
-22.250284245669324
 30
0.0
 11
15.217037797380241
 21
-21.287772271124798
 31
0.0
  0
LINE
  5
119
330
17
100
AcDbEntity
  8
0
100
AcDbLine
 10
15.217037797380241
 20
-21.287772271124798
 30
0.0
 11
14.964846243053573
 21
-20.73710800613138
 31
0.0
  0
LINE
  5
11A
330
17
100
AcDbEntity
  8
0
100
AcDbLine
 10
14.964846243053573
 20
-20.73710800613138
 30
0.0
 11
14.860743896502258
 21
-20.56408253142937
 31
0.0
  0
LINE
  5
11B
330
17
100
AcDbEntity
  8
0
100
AcDbLine
 10
14.860743896502258
 20
-20.56408253142937
 30
0.0
 11
14.290768086544457
 21
-18.339477841438196
 31
0.0
  0
LINE
  5
11C
330
17
100
AcDbEntity
  8
0
100
AcDbLine
 10
14.290768086544457
 20
-18.339477841438196
 30
0.0
 11
14.944811925212038
 21
-17.81053330251624
 31
0.0
  0
LINE
  5
11D
330
17
100
AcDbEntity
  8
0
100
AcDbLine
 10
14.944811925212038
 20
-17.81053330251624
 30
0.0
 11
15.579294128754754
 21
-17.25827611465721
 31
0.0
  0
LINE
  5
11E
330
17
100
AcDbEntity
  8
0
100
AcDbLine
 10
15.579294128754754
 20
-17.25827611465721
 30
0.0
 11
17.671126814131977
 21
-18.205891261779342
 31
0.0
  0
LINE
  5
11F
330
17
100
AcDbEntity
  8
0
100
AcDbLine
 10
17.671126814131977
 20
-18.205891261779342
 30
0.0
 11
17.823446460317648
 21
-18.338457618141803
 31
0.0
  0
LINE
  5
120
330
17
100
AcDbEntity
  8
0
100
AcDbLine
 10
17.823446460317648
 20
-18.338457618141803
 30
0.0
 11
18.321952293958116
 21
-18.682439662209312
 31
0.0
  0
LINE
  5
121
330
17
100
AcDbEntity
  8
0
100
AcDbLine
 10
18.321952293958116
 20
-18.682439662209312
 30
0.0
 11
19.21702406122558
 21
-19.149120969931552
 31
0.0
  0
LINE
  5
122
330
17
100
AcDbEntity
  8
0
100
AcDbLine
 10
19.21702406122558
 20
-19.149120969931552
 30
0.0
 11
20.541793872981437
 21
-19.641157203841498
 31
0.0
  0
LINE
  5
123
330
17
100
AcDbEntity
  8
0
100
AcDbLine
 10
20.541793872981437
 20
-19.641157203841498
 30
0.0
 11
22.310865985527123
 21
-20.055554317341848
 31
0.0
  0
LINE
  5
124
330
17
100
AcDbEntity
  8
0
100
AcDbLine
 10
22.310865985527123
 20
-20.055554317341848
 30
0.0
 11
23.625106603233586
 21
-18.489303339656935
 31
0.0
  0
LINE
  5
125
330
17
100
AcDbEntity
  8
0
100
AcDbLine
 10
23.625106603233586
 20
-18.489303339656935
 30
0.0
 11
22.90980896452762
 21
-16.81906671117403
 31
0.0
  0
LINE
  5
126
330
17
100
AcDbEntity
  8
0
100
AcDbLine
 10
22.90980896452762
 20
-16.81906671117403
 30
0.0
 11
22.19520400297061
 21
-15.599864324964901
 31
0.0
  0
LINE
  5
127
330
17
100
AcDbEntity
  8
0
100
AcDbLine
 10
22.19520400297061
 20
-15.599864324964901
 30
0.0
 11
21.58018505167276
 21
-14.79942906769475
 31
0.0
  0
LINE
  5
128
330
17
100
AcDbEntity
  8
0
100
AcDbLine
 10
21.58018505167276
 20
-14.79942906769475
 30
0.0
 11
21.154864238210088
 21
-14.368228512906267
 31
0.0
  0
LINE
  5
129
330
17
100
AcDbEntity
  8
0
100
AcDbLine
 10
21.154864238210088
 20
-14.368228512906267
 30
0.0
 11
20.99786183369275
 21
-14.24124285060883
 31
0.0
  0
LINE
  5
12A
330
17
100
AcDbEntity
  8
0
100
AcDbLine
 10
20.99786183369275
 20
-14.24124285060883
 30
0.0
 11
19.701400156135193
 21
-12.34574144747233
 31
0.0
  0
LINE
  5
12B
330
17
100
AcDbEntity
  8
0
100
AcDbLine
 10
19.701400156135193
 20
-12.34574144747233
 30
0.0
 11
20.135090637988192
 21
-11.62500000000001
 31
0.0
  0
LINE
  5
12C
330
17
100
AcDbEntity
  8
0
100
AcDbLine
 10
20.135090637988192
 20
-11.62500000000001
 30
0.0
 11
20.542425800133092
 21
-10.88904230159964
 31
0.0
  0
LINE
  5
12D
330
17
100
AcDbEntity
  8
0
100
AcDbLine
 10
20.542425800133092
 20
-10.88904230159964
 30
0.0
 11
22.832209006937124
 21
-11.064060347829225
 31
0.0
  0
LINE
  5
12E
330
17
100
AcDbEntity
  8
0
100
AcDbLine
 10
22.832209006937124
 20
-11.064060347829225
 30
0.0
 11
23.020683018661767
 21
-11.136535587447764
 31
0.0
  0
LINE
  5
12F
330
17
100
AcDbEntity
  8
0
100
AcDbLine
 10
23.020683018661767
 20
-11.136535587447764
 30
0.0
 11
23.606774059965872
 21
-11.28927393927046
 31
0.0
  0
LINE
  5
130
330
17
100
AcDbEntity
  8
0
100
AcDbLine
 10
23.606774059965872
 20
-11.28927393927046
 30
0.0
 11
24.60748080249548
 21
-11.421678346268186
 31
0.0
  0
LINE
  5
131
330
17
100
AcDbEntity
  8
0
100
AcDbLine
 10
24.60748080249548
 20
-11.421678346268186
 30
0.0
 11
26.020643522085695
 21
-11.430943203542396
 31
0.0
  0
LINE
  5
132
330
17
100
AcDbEntity
  8
0
100
AcDbLine
 10
26.020643522085695
 20
-11.430943203542396
 30
0.0
 11
27.82475969203615
 21
-11.215290815687336
 31
0.0
  0
LINE
  5
133
330
17
100
AcDbEntity
  8
0
100
AcDbLine
 10
27.82475969203615
 20
-11.215290815687336
 30
0.0
 11
28.524052518560264
 21
-9.29399956522573
 31
0.0
  0
LINE
  5
134
330
17
100
AcDbEntity
  8
0
100
AcDbLine
 10
28.524052518560264
 20
-9.29399956522573
 30
0.0
 11
27.28063803474118
 21
-7.969136731384736
 31
0.0
  0
LINE
  5
135
330
17
100
AcDbEntity
  8
0
100
AcDbLine
 10
27.28063803474118
 20
-7.969136731384736
 30
0.0
 11
26.19213725071482
 21
-7.06787053719241
 31
0.0
  0
LINE
  5
136
330
17
100
AcDbEntity
  8
0
100
AcDbLine
 10
26.19213725071482
 20
-7.06787053719241
 30
0.0
 11
25.340443499122284
 21
-6.52605630238967
 31
0.0
  0
LINE
  5
137
330
17
100
AcDbEntity
  8
0
100
AcDbLine
 10
25.340443499122284
 20
-6.52605630238967
 30
0.0
 11
24.793293393693887
 21
-6.266328608556037
 31
0.0
  0
LINE
  5
138
330
17
100
AcDbEntity
  8
0
100
AcDbLine
 10
24.793293393693887
 20
-6.266328608556037
 30
0.0
 11
24.60232773830402
 21
-6.200699103645019
 31
0.0
  0
LINE
  5
139
330
17
100
AcDbEntity
  8
0
100
AcDbLine
 10
24.60232773830402
 20
-6.200699103645019
 30
0.0
 11
22.735752605196723
 21
-4.862926431202768
 31
0.0
  0
LINE
  5
13A
330
17
100
AcDbEntity
  8
0
100
AcDbLine
 10
22.735752605196723
 20
-4.862926431202768
 30
0.0
 11
22.896780257533837
 21
-4.0373201307561315
 31
0.0
  0
LINE
  5
13B
330
17
100
AcDbEntity
  8
0
100
AcDbLine
 10
22.896780257533837
 20
-4.0373201307561315
 30
0.0
 11
23.0278377460995
 21
-3.2064292818203586
 31
0.0
  0
LINE
  5
13C
330
17
100
AcDbEntity
  8
0
100
AcDbLine
 10
23.0278377460995
 20
-3.2064292818203586
 30
0.0
 11
25.23938982598877
 21
-2.5877404677908102
 31
0.0
  0
CIRCLE
  5
13D
330
17
100
AcDbEntity
  8
0
100
AcDbCircle
 10
0.0
 20
0.0
 30
0.0
 40
5.0
  0
ENDSEC
  0
SECTION
  2
OBJECTS
  0
DICTIONARY
  5
A
330
0
100
AcDbDictionary
281
1
  3
ACAD_COLOR
350
B
  3
ACAD_GROUP
350
C
  3
ACAD_LAYOUT
350
D
  3
ACAD_MATERIAL
350
E
  3
ACAD_MLEADERSTYLE
350
F
  3
ACAD_MLINESTYLE
350
10
  3
ACAD_PLOTSETTINGS
350
11
  3
ACAD_PLOTSTYLENAME
350
12
  3
ACAD_SCALELIST
350
14
  3
ACAD_TABLESTYLE
350
15
  3
ACAD_VISUALSTYLE
350
16
  3
EZDXF_META
350
2D
  0
DICTIONARY
  5
B
330
A
100
AcDbDictionary
281
1
  0
DICTIONARY
  5
C
330
A
100
AcDbDictionary
281
1
  0
DICTIONARY
  5
D
330
A
100
AcDbDictionary
281
1
  3
Model
350
1A
  3
Layout1
350
1E
  0
DICTIONARY
  5
E
330
A
100
AcDbDictionary
281
1
  3
ByBlock
350
1F
  3
ByLayer
350
20
  3
Global
350
21
  0
DICTIONARY
  5
F
330
A
100
AcDbDictionary
281
1
  3
Standard
350
2C
  0
DICTIONARY
  5
10
330
A
100
AcDbDictionary
281
1
  3
Standard
350
22
  0
DICTIONARY
  5
11
330
A
100
AcDbDictionary
281
1
  0
ACDBDICTIONARYWDFLT
  5
12
330
A
100
AcDbDictionary
281
1
  3
Normal
350
13
100
AcDbDictionaryWithDefault
340
13
  0
ACDBPLACEHOLDER
  5
13
330
12
  0
DICTIONARY
  5
14
330
A
100
AcDbDictionary
281
1
  0
DICTIONARY
  5
15
330
A
100
AcDbDictionary
281
1
  0
DICTIONARY
  5
16
330
A
100
AcDbDictionary
281
1
  0
LAYOUT
  5
1A
330
D
100
AcDbPlotSettings
  1

  4
A3
  6

 40
7.5
 41
20.0
 42
7.5
 43
20.0
 44
420.0
 45
297.0
 46
0.0
 47
0.0
 48
0.0
 49
0.0
140
0.0
141
0.0
142
1.0
143
1.0
 70
1024
 72
1
 73
0
 74
5
  7

 75
16
 76
0
 77
2
 78
300
147
1.0
148
0.0
149
0.0
100
AcDbLayout
  1
Model
 70
1
 71
0
 10
0.0
 20
0.0
 11
420.0
 21
297.0
 12
0.0
 22
0.0
 32
0.0
 14
1e+20
 24
1e+20
 34
1e+20
 15
-1e+20
 25
-1e+20
 35
-1e+20
146
0.0
 13
0.0
 23
0.0
 33
0.0
 16
1.0
 26
0.0
 36
0.0
 17
0.0
 27
1.0
 37
0.0
 76
1
330
17
  0
LAYOUT
  5
1E
330
D
100
AcDbPlotSettings
  1

  4
A3
  6

 40
7.5
 41
20.0
 42
7.5
 43
20.0
 44
420.0
 45
297.0
 46
0.0
 47
0.0
 48
0.0
 49
0.0
140
0.0
141
0.0
142
1.0
143
1.0
 70
0
 72
1
 73
0
 74
5
  7

 75
16
 76
0
 77
2
 78
300
147
1.0
148
0.0
149
0.0
100
AcDbLayout
  1
Layout1
 70
1
 71
1
 10
0.0
 20
0.0
 11
420.0
 21
297.0
 12
0.0
 22
0.0
 32
0.0
 14
1e+20
 24
1e+20
 34
1e+20
 15
-1e+20
 25
-1e+20
 35
-1e+20
146
0.0
 13
0.0
 23
0.0
 33
0.0
 16
1.0
 26
0.0
 36
0.0
 17
0.0
 27
1.0
 37
0.0
 76
1
330
1B
  0
MATERIAL
  5
1F
102
{ACAD_REACTORS
330
E
102
}
330
E
100
AcDbMaterial
  1
ByBlock
  2

 70
0
 40
1.0
 71
1
 41
1.0
 91
-1023410177
 42
1.0
 72
1
  3

 73
1
 74
1
 75
1
 44
0.5
 73
0
 45
1.0
 46
1.0
 77
1
  4

 78
1
 79
1
170
1
 48
1.0
171
1
  6

172
1
173
1
174
1
140
1.0
141
1.0
175
1
  7

176
1
177
1
178
1
143
1.0
179
1
  8

270
1
271
1
272
1
145
1.0
146
1.0
273
1
  9

274
1
275
1
276
1
 42
1.0
 72
1
  3

 73
1
 74
1
 75
1
 94
63
  0
MATERIAL
  5
20
102
{ACAD_REACTORS
330
E
102
}
330
E
100
AcDbMaterial
  1
ByLayer
  2

 70
0
 40
1.0
 71
1
 41
1.0
 91
-1023410177
 42
1.0
 72
1
  3

 73
1
 74
1
 75
1
 44
0.5
 73
0
 45
1.0
 46
1.0
 77
1
  4

 78
1
 79
1
170
1
 48
1.0
171
1
  6

172
1
173
1
174
1
140
1.0
141
1.0
175
1
  7

176
1
177
1
178
1
143
1.0
179
1
  8

270
1
271
1
272
1
145
1.0
146
1.0
273
1
  9

274
1
275
1
276
1
 42
1.0
 72
1
  3

 73
1
 74
1
 75
1
 94
63
  0
MATERIAL
  5
21
102
{ACAD_REACTORS
330
E
102
}
330
E
100
AcDbMaterial
  1
Global
  2

 70
0
 40
1.0
 71
1
 41
1.0
 91
-1023410177
 42
1.0
 72
1
  3

 73
1
 74
1
 75
1
 44
0.5
 73
0
 45
1.0
 46
1.0
 77
1
  4

 78
1
 79
1
170
1
 48
1.0
171
1
  6

172
1
173
1
174
1
140
1.0
141
1.0
175
1
  7

176
1
177
1
178
1
143
1.0
179
1
  8

270
1
271
1
272
1
145
1.0
146
1.0
273
1
  9

274
1
275
1
276
1
 42
1.0
 72
1
  3

 73
1
 74
1
 75
1
 94
63
  0
MLINESTYLE
  5
22
102
{ACAD_REACTORS
330
10
102
}
330
10
100
AcDbMlineStyle
  2
Standard
 70
0
  3

 62
256
 51
90.0
 52
90.0
 71
2
 49
0.5
 62
256
  6
BYLAYER
 49
-0.5
 62
256
  6
BYLAYER
  0
MLEADERSTYLE
  5
2C
102
{ACAD_REACTORS
330
F
102
}
330
F
100
AcDbMLeaderStyle
179
2
170
2
171
1
172
0
 90
2
 40
0.0
 41
0.0
173
1
 91
-1056964608
 92
-2
290
1
 42
2.0
291
1
 43
8.0
  3
Standard
 44
4.0
300

342
29
174
1
175
1
176
0
178
1
 93
-1056964608
 45
4.0
292
0
297
0
 46
4.0
 94
-1056964608
 47
1.0
 49
1.0
140
1.0
294
1
141
0.0
177
0
142
1.0
295
0
296
0
143
3.75
271
0
272
9
273
9
  0
DICTIONARY
  5
2D
330
A
100
AcDbDictionary
280
1
281
1
  3
CREATED_BY_EZDXF
350
2E
  3
WRITTEN_BY_EZDXF
350
141
  0
DICTIONARYVAR
  5
2E
330
2D
100
DictionaryVariables
280
0
  1
1.4.4 @ 2026-08-31T18:42:50.261735+00:00
  0
DICTIONARYVAR
  5
141
330
2D
100
DictionaryVariables
280
0
  1
1.4.4 @ 2026-08-31T18:42:50.382461+00:00
  0
ENDSEC
  0
EOF
